<?xml version="1.0" encoding="UTF-8"?>
<svg width="240px" height="50px" viewBox="0 0 240 50" version="1.1" xmlns="http://www.w3.org/2000/svg" xmlns:xlink="http://www.w3.org/1999/xlink">
    <!-- Generator: Sketch 52.5 (67469) - http://www.bohemiancoding.com/sketch -->
    <title>Group 10</title>
    <desc>Created with Sketch.</desc>
    <defs>
        <polygon id="path-1" points="3.26086957e-05 0.308333333 41.3481848 0.308333333 41.3481848 42.5753333 3.26086957e-05 42.5753333"></polygon>
    </defs>
    <g id="Page-1" stroke="none" stroke-width="1" fill="none" fill-rule="evenodd">
        <g id="Aroundhome---Startseite-28.11.---Desktop-Copy-2" transform="translate(-135.000000, -13.000000)">
            <g id="Group-72" transform="translate(135.000000, 13.000000)">
                <g id="Group-10">
                    <g id="Group-26" transform="translate(0.000000, 0.025333)">
                        <g id="Group-3">
                            <mask id="mask-2" fill="white">
                                <use xlink:href="#path-1"></use>
                            </mask>
                            <g id="Clip-2"></g>
                            <path d="M41.3481848,21.4416 C41.3481848,9.77026667 32.0922065,0.308266667 20.6742717,0.308266667 C9.25601087,0.308266667 3.26086957e-05,9.77026667 3.26086957e-05,21.4416 C3.26086957e-05,33.1136 9.25601087,42.5756 20.6742717,42.5756 C32.0922065,42.5756 41.3481848,33.1136 41.3481848,21.4416" id="Fill-1" fill="#005039" mask="url(#mask-2)"></path>
                        </g>
                        <path d="M63.65475,15.5517333 L60.9951848,22.8004 L66.3143152,22.8004 L63.65475,15.5517333 Z M59.3021413,27.4177333 L57.9423587,31.1704 L52.5015978,31.1704 L61.2368152,9.23373333 L66.133337,9.23373333 L74.8379022,31.1704 L69.3968152,31.1704 L68.0073587,27.4177333 L59.3021413,27.4177333 Z" id="Fill-4" fill="#005039"></path>
                        <path d="M86.8384891,20.6963667 C84.4502283,20.7890333 82.9391413,21.4383667 81.790663,22.5813667 L81.790663,31.1703667 L76.8641413,31.1703667 L76.8641413,16.1857 L81.790663,16.1857 L81.790663,17.7920333 C83.0910978,16.6490333 84.6621848,15.9380333 86.8384891,15.9380333 L86.8384891,20.6963667 Z" id="Fill-6" fill="#005039"></path>
                        <path d="M99.4125,23.6933333 C99.4125,21.747 98.0830435,20.171 96.1173913,20.171 C94.0930435,20.171 92.7932609,21.747 92.7932609,23.6933333 C92.7932609,25.702 94.0930435,27.3086667 96.1173913,27.3086667 C98.0830435,27.3086667 99.4125,25.702 99.4125,23.6933333 M104.037065,23.663 C104.037065,28.235 100.741957,31.6336667 96.1173913,31.6336667 C91.4638043,31.6336667 88.1383696,28.235 88.1383696,23.663 C88.1383696,19.1516667 91.4638043,15.846 96.1173913,15.846 C100.741957,15.846 104.037065,19.1516667 104.037065,23.663" id="Fill-8" fill="#005039"></path>
                        <path d="M121.568739,31.1703667 L116.672543,31.1703667 L116.672543,30.1820333 C115.493087,31.1090333 114.224283,31.6337 112.652543,31.6337 C108.934826,31.6337 106.395913,29.0077 106.395913,24.7437 L106.395913,16.1857 L111.292109,16.1857 L111.292109,23.9713667 C111.292109,26.1033667 112.380261,27.1230333 113.982,27.1230333 C114.888848,27.1230333 115.826022,26.5977 116.672543,25.6397 L116.672543,16.1857 L121.568739,16.1857 L121.568739,31.1703667 Z" id="Fill-10" fill="#005039"></path>
                        <path d="M140.067359,22.612 L140.067359,31.17 L135.170837,31.17 L135.170837,23.4153333 C135.170837,21.2833333 134.112685,20.264 132.48062,20.264 C131.604098,20.264 130.667576,20.758 129.821054,21.7466667 L129.821054,31.17 L124.894533,31.17 L124.894533,16.1853333 L129.821054,16.1853333 L129.821054,17.1743333 C130.999859,16.247 132.269967,15.7223333 133.840728,15.7223333 C137.528446,15.7223333 140.067359,18.348 140.067359,22.612" id="Fill-12" fill="#005039"></path>
                        <path d="M153.700239,26.0417667 L153.700239,21.3764333 C152.763065,20.3254333 151.735239,19.9857667 150.678065,19.9857667 C148.682739,19.9857667 147.201978,21.6541 147.201978,23.6931 C147.201978,25.7941 148.682739,27.4317667 150.678065,27.4317667 C151.735239,27.4317667 152.763065,27.1234333 153.700239,26.0417667 Z M158.596435,31.1701 L153.700239,31.1701 L153.700239,30.3977667 C152.611761,31.1087667 151.311978,31.5414333 149.679913,31.5414333 C145.720565,31.5414333 142.395783,28.1731 142.395783,23.6931 C142.395783,19.2444333 145.720565,15.9074333 149.679913,15.9074333 C151.311978,15.9074333 152.611761,16.3401 153.700239,17.0507667 L153.700239,9.23343333 L158.596435,9.23343333 L158.596435,31.1701 Z" id="Fill-14" fill="#005039"></path>
                        <path d="M177.095022,22.612 L177.095022,31.17 L172.1985,31.17 L172.1985,23.4153333 C172.1985,21.2833333 171.140348,20.264 169.508283,20.264 C168.631761,20.264 167.695239,20.758 166.848717,21.7466667 L166.848717,31.17 L161.922196,31.17 L161.922196,9.23333333 L166.848717,9.23333333 L166.848717,17.1743333 C168.027522,16.247 169.296978,15.7223333 170.868391,15.7223333 C174.556109,15.7223333 177.095022,18.348 177.095022,22.612" id="Fill-16" fill="#E8B000"></path>
                        <path d="M190.697087,23.6933333 C190.697087,21.747 189.36763,20.171 187.40263,20.171 C185.37763,20.171 184.077848,21.747 184.077848,23.6933333 C184.077848,25.702 185.37763,27.3086667 187.40263,27.3086667 C189.36763,27.3086667 190.697087,25.702 190.697087,23.6933333 M195.321652,23.663 C195.321652,28.235 192.027196,31.6336667 187.40263,31.6336667 C182.748391,31.6336667 179.423609,28.235 179.423609,23.663 C179.423609,19.1516667 182.748391,15.846 187.40263,15.846 C192.027196,15.846 195.321652,19.1516667 195.321652,23.663" id="Fill-18" fill="#E8B000"></path>
                        <path d="M222.072163,22.612 L222.072163,31.17 L217.175641,31.17 L217.175641,23.4153333 C217.175641,21.2833333 216.147815,20.264 214.546076,20.264 C213.78988,20.264 213.034337,20.6033333 212.30912,21.5 C212.339446,21.8706667 212.369772,22.2413333 212.369772,22.612 L212.369772,31.17 L207.47325,31.17 L207.47325,23.4153333 C207.47325,21.2833333 206.44575,20.264 204.844011,20.264 C204.118141,20.264 203.362598,20.6346667 202.667707,21.5613333 L202.667707,31.17 L197.740859,31.17 L197.740859,16.1853333 L202.667707,16.1853333 L202.667707,17.051 C203.634554,16.1853333 204.66238,15.7223333 206.264446,15.7223333 C208.108141,15.7223333 209.67988,16.4323333 210.798033,17.761 C212.339446,16.34 213.820207,15.7223333 215.996511,15.7223333 C219.502924,15.7223333 222.072163,18.348 222.072163,22.612" id="Fill-20" fill="#E8B000"></path>
                        <path d="M229.237272,22.2104333 L235.191293,22.2104333 C234.919337,20.5724333 233.861837,19.7077667 232.290098,19.7077667 C230.627707,19.7077667 229.59988,20.6961 229.237272,22.2104333 M239.69488,25.1454333 L229.267598,25.1454333 C229.65988,26.5051 230.687707,27.5554333 232.562054,27.5554333 C233.589554,27.5554333 234.375098,27.1537667 234.798359,26.4744333 L239.664554,26.4744333 C238.939337,29.5641 236.128467,31.5104333 232.501402,31.5104333 C227.695859,31.5104333 224.491728,28.2354333 224.491728,23.6627667 C224.491728,19.1211 227.605207,15.8457667 232.320424,15.8457667 C236.551402,15.8457667 239.785533,18.8427667 239.785533,23.3541 C239.785533,23.9407667 239.785533,24.5584333 239.69488,25.1454333" id="Fill-22" fill="#E8B000"></path>
                        <path d="M31.9811413,24.1176667 C31.979837,24.0173333 31.9707065,23.9166667 31.950163,23.8156667 C31.9465761,23.7996667 31.9407065,23.7846667 31.9374457,23.7683333 C31.9191848,23.6913333 31.8947283,23.6156667 31.8644022,23.54 C31.8503804,23.5033333 31.8347283,23.4683333 31.8180978,23.433 C31.7936413,23.383 31.7655978,23.334 31.7359239,23.285 C31.7124457,23.2466667 31.6909239,23.2066667 31.6645109,23.1703333 C31.6635326,23.1686667 31.6628804,23.167 31.66125,23.1643333 L22.0967935,9.95433333 C21.4025543,8.99433333 19.9455978,8.99433333 19.2513587,9.95433333 L9.68690217,23.1643333 C9.68592391,23.167 9.68461957,23.1686667 9.68331522,23.1703333 C9.65722826,23.2066667 9.63570652,23.2466667 9.61222826,23.285 C9.58255435,23.334 9.55451087,23.383 9.53038043,23.433 C9.51342391,23.4683333 9.49842391,23.5033333 9.48375,23.54 C9.45342391,23.6156667 9.42896739,23.6913333 9.4113587,23.7683333 C9.40711957,23.7846667 9.40157609,23.7996667 9.3986413,23.8156667 C9.37744565,23.9166667 9.3686413,24.0173333 9.36701087,24.1176667 C9.36701087,24.1283333 9.36407609,24.138 9.36407609,24.1486667 L9.36407609,29.468 C9.36407609,30.4086667 10.1440761,31.171 11.1063587,31.171 L30.2417935,31.171 C31.2040761,31.171 31.9840761,30.4086667 31.9840761,29.468 L31.9840761,24.1486667 C31.9840761,24.138 31.9811413,24.1283333 31.9811413,24.1176667" id="Fill-24" fill="#E8B000"></path>
                    </g>
                    <g id="Group-71" transform="translate(91.304348, 41.025333)" fill="#005039">
                        <path d="M6.70506522,0.355766667 C6.83778261,0.2551 6.97963043,0.204766667 7.13093478,0.204766667 C7.34321739,0.204766667 7.5228913,0.270766667 7.6706087,0.402433333 C7.81865217,0.533766667 7.89202174,0.738766667 7.89202174,1.01743333 L7.89202174,7.5091 C7.89202174,7.71776667 7.82582609,7.88876667 7.6931087,8.01976667 C7.56071739,8.15143333 7.38854348,8.2171 7.17626087,8.2171 C6.97180435,8.2171 6.80126087,8.15143333 6.66495652,8.01976667 C6.52865217,7.88876667 6.4605,7.71776667 6.4605,7.5091 L6.4605,3.0961 L4.58647826,6.59176667 C4.50332609,6.7541 4.41234783,6.8761 4.31386957,6.9571 C4.21506522,7.03876667 4.09017391,7.07943333 3.93886957,7.07943333 C3.68876087,7.07943333 3.48071739,6.91276667 3.31408696,6.5801 L1.49647826,3.14276667 L1.49647826,7.5091 C1.49647826,7.71776667 1.43028261,7.88876667 1.29756522,8.01976667 C1.16517391,8.15143333 0.992673913,8.2171 0.780717391,8.2171 C0.57626087,8.2171 0.405717391,8.15143333 0.269413043,8.01976667 C0.133434783,7.88876667 0.0652826087,7.71776667 0.0652826087,7.5091 L0.0652826087,1.01743333 C0.0652826087,0.7621 0.138978261,0.562766667 0.286695652,0.419433333 C0.434413043,0.276433333 0.6255,0.204766667 0.860282609,0.204766667 C1.04973913,0.204766667 1.20495652,0.2591 1.32626087,0.367433333 C1.44723913,0.475766667 1.56854348,0.6461 1.68984783,0.8781 L3.98419565,5.09343333 L6.3131087,0.8781 C6.44191304,0.630433333 6.57234783,0.456766667 6.70506522,0.355766667" id="Fill-27"></path>
                        <path d="M11.1346304,3.82226667 C10.8845217,4.0426 10.7218043,4.3546 10.6458261,4.7566 L13.3155,4.7566 C13.323,4.60993333 13.3005,4.4606 13.2473478,4.3096 C13.1945217,4.1586 13.113,4.0216 13.0031087,3.8976 C12.8935435,3.77393333 12.7588696,3.67493333 12.5997391,3.60126667 C12.4409348,3.52793333 12.2589783,3.49126667 12.0545217,3.49126667 C11.6912609,3.49126667 11.384413,3.60126667 11.1346304,3.82226667 M11.1401739,6.6726 C11.4166957,6.92026667 11.763,7.0446 12.179413,7.0446 C12.3385435,7.0446 12.4882174,7.02693333 12.6284348,6.99226667 C12.7686522,6.95726667 12.8951739,6.9126 13.0089783,6.8586 C13.1224565,6.80426667 13.2225652,6.7486 13.3099565,6.69026667 C13.3966957,6.6326 13.4671304,6.58426667 13.5199565,6.54493333 C13.6562609,6.48326667 13.7586522,6.45226667 13.8268043,6.45226667 C14.0012609,6.45226667 14.1466957,6.51826667 14.264413,6.64993333 C14.3814783,6.78093333 14.4401739,6.9286 14.4401739,7.09126667 C14.4401739,7.20726667 14.4098478,7.31326667 14.3491957,7.40993333 C14.2888696,7.50693333 14.2207174,7.5866 14.1447391,7.6486 C13.9252826,7.8346 13.6412609,7.9946 13.293,8.1306 C12.944413,8.26593333 12.5355,8.33326667 12.0659348,8.33326667 C11.6495217,8.33326667 11.2670217,8.25826667 10.9187609,8.10726667 C10.5705,7.95626667 10.2711522,7.74526667 10.0210435,7.47426667 C9.77126087,7.20326667 9.57626087,6.88193333 9.43636957,6.50993333 C9.29615217,6.13893333 9.22604348,5.73226667 9.22604348,5.29126667 C9.22604348,4.86493333 9.29778261,4.46293333 9.44191304,4.0836 C9.58571739,3.70393333 9.78463043,3.37526667 10.0383261,3.09593333 C10.2920217,2.81726667 10.5926739,2.59726667 10.9412609,2.43426667 C11.2898478,2.27193333 11.6645217,2.1906 12.0659348,2.1906 C12.4598478,2.1906 12.8175652,2.26193333 13.139413,2.40526667 C13.4612609,2.5486 13.7358261,2.73826667 13.9631087,2.97426667 C14.1903913,3.21026667 14.3664783,3.4836 14.4910435,3.79326667 C14.6162609,4.1026 14.6788696,4.42393333 14.6788696,4.7566 C14.6788696,5.00426667 14.6387609,5.20793333 14.5595217,5.36626667 C14.4799565,5.52493333 14.3116957,5.60493333 14.0537609,5.60493333 L10.6347391,5.60493333 C10.6950652,6.06893333 10.8636522,6.42493333 11.1401739,6.6726" id="Fill-29"></path>
                        <path d="M16.0815,2.50956667 C16.2103043,2.37423333 16.3769348,2.3069 16.5813913,2.3069 C16.7858478,2.3069 16.9521522,2.37423333 17.0809565,2.50956667 C17.2097609,2.64556667 17.274,2.8099 17.274,3.00323333 L17.274,6.38223333 C17.274,6.53756667 17.2948696,6.6669 17.3366087,6.7719 C17.3783478,6.87623333 17.4559565,6.92856667 17.5694348,6.92856667 C17.6982391,6.92856667 17.7888913,6.98623333 17.8420435,7.10223333 C17.8951957,7.2189 17.9216087,7.34256667 17.9216087,7.47423333 C17.9216087,7.69856667 17.855413,7.87856667 17.7230217,8.0139 C17.5903043,8.14956667 17.3917174,8.21723333 17.1266087,8.21723333 C16.7401957,8.21723333 16.4372609,8.0839 16.2178043,7.8169 C15.9980217,7.5499 15.8881304,7.10223333 15.8881304,6.47556667 L15.8881304,3.00323333 C15.8881304,2.8099 15.9526957,2.64556667 16.0815,2.50956667 M17.1376957,0.379233333 C17.2818261,0.5109 17.3535652,0.700233333 17.3535652,0.9479 C17.3535652,1.2109 17.2818261,1.4009 17.1376957,1.5169 C16.9938913,1.6329 16.8122609,1.69123333 16.5928043,1.69123333 C16.3805217,1.69123333 16.2044348,1.62956667 16.0645435,1.50523333 C15.9243261,1.3819 15.8542174,1.1959 15.8542174,0.9479 C15.8542174,0.7079 15.9223696,0.520233333 16.0586739,0.3849 C16.1949783,0.249233333 16.3730217,0.181566667 16.5928043,0.181566667 C16.8122609,0.181566667 16.9938913,0.247233333 17.1376957,0.379233333" id="Fill-31"></path>
                        <path d="M19.0979674,2.5039 C19.2114457,2.37256667 19.3898152,2.3069 19.6320978,2.3069 C19.8743804,2.3069 20.0481848,2.36856667 20.1544891,2.49256667 C20.2604674,2.61623333 20.3136196,2.75556667 20.3136196,2.91056667 L20.3136196,3.27023333 C20.4574239,2.92223333 20.6807935,2.6549 20.9837283,2.46923333 C21.286337,2.28356667 21.631337,2.1909 22.0174239,2.1909 C22.6764457,2.1909 23.18775,2.40123333 23.5510109,2.82323333 C23.9145978,3.24523333 24.0962283,3.8239 24.0962283,4.55956667 L24.0962283,7.53223333 C24.0962283,7.7259 24.0300326,7.88856667 23.8976413,8.01956667 C23.7649239,8.15156667 23.596337,8.21723333 23.3918804,8.21723333 C23.1949239,8.21723333 23.03025,8.15156667 22.8978587,8.01956667 C22.7654674,7.88856667 22.6989457,7.7259 22.6989457,7.53223333 L22.6989457,5.05856667 C22.6989457,4.5479 22.5949239,4.15856667 22.3865543,3.8919 C22.1781848,3.62456667 21.8886196,3.49123333 21.5175326,3.49123333 C21.1389457,3.49123333 20.843837,3.6289 20.6315543,3.90323333 C20.4195978,4.17856667 20.3136196,4.5749 20.3136196,5.09356667 L20.3136196,7.53223333 C20.3136196,7.7259 20.2490543,7.88856667 20.12025,8.01956667 C19.9914457,8.15156667 19.8248152,8.21723333 19.6206848,8.21723333 C19.4312283,8.21723333 19.2685109,8.15323333 19.1318804,8.02556667 C18.9955761,7.8979 18.9274239,7.73356667 18.9274239,7.53223333 L18.9274239,2.92223333 C18.9274239,2.7749 18.984163,2.63556667 19.0979674,2.5039" id="Fill-33"></path>
                        <path d="M31.998,4.05433333 C32.2516957,3.78733333 32.3791957,3.42933333 32.3791957,2.98 C32.3791957,2.50033333 32.2487609,2.13433333 31.9872391,1.883 C31.7257174,1.631 31.3451739,1.50533333 30.8452826,1.50533333 L29.4936522,1.50533333 L29.4936522,4.45466667 L30.8677826,4.45466667 C31.368,4.45466667 31.7449565,4.32133333 31.998,4.05433333 M32.1349565,0.402333333 C32.4939783,0.533666667 32.8011522,0.719666667 33.0548478,0.959666667 C33.3085435,1.2 33.5035435,1.49033333 33.6398478,1.83066667 C33.7761522,2.171 33.8446304,2.55433333 33.8446304,2.98 C33.8446304,3.41366667 33.7741957,3.80266667 33.6343043,4.147 C33.494413,4.49166667 33.2938696,4.78166667 33.0320217,5.01833333 C32.7708261,5.25466667 32.4584348,5.43633333 32.0951739,5.564 C31.7312609,5.69166667 31.3226739,5.75566667 30.8677826,5.75566667 L29.4936522,5.75566667 L29.4936522,7.48566667 C29.4936522,7.70266667 29.4274565,7.87866667 29.2947391,8.014 C29.1623478,8.14966667 28.9898478,8.21733333 28.7778913,8.21733333 C28.5662609,8.21733333 28.3934348,8.14966667 28.2610435,8.014 C28.1286522,7.87866667 28.0624565,7.70266667 28.0624565,7.48566667 L28.0624565,0.936333333 C28.0624565,0.719666667 28.1286522,0.543666667 28.2610435,0.408333333 C28.3934348,0.272333333 28.5662609,0.205 28.7778913,0.205 L30.9137609,0.205 C31.368,0.205 31.7749565,0.270666667 32.1349565,0.402333333" id="Fill-35"></path>
                        <path d="M38.1302609,6.92266667 C38.3154783,6.841 38.4765652,6.725 38.6125435,6.57433333 C38.7495,6.423 38.8571087,6.23966667 38.9366739,6.02266667 C39.0165652,5.806 39.0556957,5.56233333 39.0556957,5.291 C39.0556957,4.749 38.9177609,4.31366667 38.6412391,3.98433333 C38.3653696,3.65566667 37.9998261,3.49133333 37.5452609,3.49133333 C37.0753696,3.49133333 36.7081957,3.65733333 36.443087,3.99033333 C36.1786304,4.32366667 36.045587,4.75666667 36.045587,5.291 C36.045587,5.56233333 36.0837391,5.80433333 36.1590652,6.017 C36.2350435,6.22966667 36.3410217,6.41333333 36.4773261,6.56833333 C36.6136304,6.72333333 36.7727609,6.841 36.9547174,6.92266667 C37.1363478,7.00366667 37.3333043,7.04466667 37.5452609,7.04466667 C37.7493913,7.04466667 37.9443913,7.00366667 38.1302609,6.92266667 M40.725913,6.92866667 C40.8397174,6.92866667 40.928413,6.977 40.9926522,7.07366667 C41.0575435,7.17033333 41.0891739,7.30733333 41.0891739,7.48566667 C41.0891739,7.97366667 40.7979783,8.21733333 40.2146087,8.21733333 C39.8356957,8.21733333 39.5598261,8.11466667 39.3853696,7.90966667 C39.2112391,7.70433333 39.1016739,7.46666667 39.0556957,7.19533333 L39.0446087,7.056 C38.8629783,7.46666667 38.607,7.782 38.2779783,8.00233333 C37.9483043,8.223 37.5599348,8.33333333 37.1135217,8.33333333 C36.7727609,8.33333333 36.4512391,8.26166667 36.1476522,8.11866667 C35.8447174,7.97533333 35.5799348,7.772 35.3526522,7.509 C35.1250435,7.24566667 34.9453696,6.92633333 34.8133043,6.55066667 C34.680587,6.17533333 34.6143913,5.756 34.6143913,5.291 C34.6143913,4.82666667 34.6845,4.40266667 34.8247174,4.01933333 C34.9642826,3.63633333 35.1537391,3.30933333 35.3924348,3.03833333 C35.6311304,2.76733333 35.9076522,2.558 36.2216739,2.411 C36.5356957,2.26433333 36.8673261,2.19066667 37.215587,2.19066667 C37.6854783,2.19066667 38.0660217,2.297 38.3572174,2.50966667 C38.6493913,2.723 38.8779783,3.011 39.0446087,3.37533333 L39.0446087,2.91066667 C39.0446087,2.73233333 39.1088478,2.58733333 39.2376522,2.47533333 C39.3664565,2.36266667 39.537,2.30666667 39.7492826,2.30666667 C39.9612391,2.30666667 40.1295,2.36266667 40.2543913,2.47533333 C40.3789565,2.58733333 40.4418913,2.73233333 40.4418913,2.91066667 L40.4418913,6.40566667 C40.4418913,6.75433333 40.5367826,6.92866667 40.725913,6.92866667" id="Fill-37"></path>
                        <path d="M42.2786413,2.49266667 C42.3888587,2.36866667 42.5496196,2.30666667 42.7615761,2.30666667 C43.2008152,2.30666667 43.4209239,2.51966667 43.4209239,2.945 L43.4209239,3.34033333 C43.5797283,3.015 43.8011413,2.74233333 44.085163,2.52133333 C44.3691848,2.301 44.7119022,2.19066667 45.1129891,2.19066667 C45.3784239,2.19066667 45.5659239,2.25266667 45.6754891,2.376 C45.7857065,2.50033333 45.8404891,2.64733333 45.8404891,2.81733333 C45.8404891,3.011 45.787337,3.17333333 45.6813587,3.30533333 C45.5750543,3.437 45.4045109,3.503 45.1700543,3.503 C44.9580978,3.503 44.7516848,3.53966667 44.5511413,3.613 C44.3505978,3.68666667 44.1725543,3.79666667 44.017337,3.94433333 C43.8614674,4.091 43.7369022,4.27866667 43.642337,4.507 C43.5474457,4.73566667 43.500163,5.00433333 43.500163,5.31466667 L43.500163,7.53233333 C43.500163,7.74133333 43.432337,7.908 43.2953804,8.03133333 C43.1590761,8.15566667 42.9966848,8.21733333 42.8072283,8.21733333 C42.6105978,8.21733333 42.4459239,8.15566667 42.3128804,8.03133333 C42.1804891,7.908 42.1142935,7.74133333 42.1142935,7.53233333 L42.1142935,2.945 C42.1142935,2.76733333 42.1690761,2.61633333 42.2786413,2.49266667" id="Fill-39"></path>
                        <path d="M49.4140109,7.04456667 C49.6031413,7.04456667 49.7436848,7.01956667 49.8340109,6.96856667 C49.924663,6.91856667 50.0159674,6.89356667 50.1066196,6.89356667 C50.26575,6.89356667 50.3870543,6.95523333 50.4705326,7.07956667 C50.5536848,7.20323333 50.5954239,7.32323333 50.5954239,7.43923333 C50.5954239,7.7259 50.5005326,7.93123333 50.3114022,8.05456667 C50.1522717,8.1629 49.9800978,8.23656667 49.7942283,8.27556667 C49.6090109,8.31423333 49.3947717,8.33323333 49.1524891,8.33323333 C48.8192283,8.33323333 48.54075,8.27723333 48.3173804,8.1649 C48.094337,8.0529 47.9162935,7.9039 47.7835761,7.7179 C47.6515109,7.53223333 47.5566196,7.31723333 47.4995543,7.07356667 C47.4424891,6.82923333 47.4144457,6.5799 47.4144457,6.32456667 L47.4144457,3.57223333 L47.0965109,3.57223333 C46.9145543,3.57223333 46.7652065,3.51623333 46.6478152,3.4039 C46.5300978,3.2919 46.4717283,3.13856667 46.4717283,2.94523333 C46.4717283,2.75156667 46.5320543,2.59723333 46.6533587,2.48123333 C46.774337,2.36456667 46.9217283,2.3069 47.0965109,2.3069 L47.4144457,2.3069 L47.4144457,1.47023333 C47.4144457,1.2769 47.4806413,1.11423333 47.6133587,0.9829 C47.7460761,0.851233333 47.9140109,0.785566667 48.1187935,0.785566667 C48.31575,0.785566667 48.4804239,0.851233333 48.6128152,0.9829 C48.7455326,1.11423333 48.8117283,1.2769 48.8117283,1.47023333 L48.8117283,2.3069 L49.7655326,2.3069 C49.9399891,2.3069 50.0877065,2.36456667 50.2090109,2.48123333 C50.3303152,2.59723333 50.3906413,2.75156667 50.3906413,2.94523333 C50.3906413,3.13856667 50.3303152,3.2919 50.2090109,3.4039 C50.0877065,3.51623333 49.9399891,3.57223333 49.7655326,3.57223333 L48.8117283,3.57223333 L48.8117283,6.21956667 C48.8117283,6.76923333 49.0125978,7.04456667 49.4140109,7.04456667" id="Fill-41"></path>
                        <path d="M51.7090435,2.5039 C51.8231739,2.37256667 52.0012174,2.3069 52.2435,2.3069 C52.4857826,2.3069 52.659587,2.36856667 52.7655652,2.49256667 C52.8715435,2.61623333 52.9250217,2.75556667 52.9250217,2.91056667 L52.9250217,3.27023333 C53.0685,2.92223333 53.2918696,2.6549 53.5948043,2.46923333 C53.8980652,2.28356667 54.2427391,2.1909 54.6285,2.1909 C55.2878478,2.1909 55.7985,2.40123333 56.162413,2.82323333 C56.5256739,3.24523333 56.7076304,3.8239 56.7076304,4.55956667 L56.7076304,7.53223333 C56.7076304,7.7259 56.6414348,7.88856667 56.5087174,8.01956667 C56.3763261,8.15156667 56.207413,8.21723333 56.0032826,8.21723333 C55.8063261,8.21723333 55.6419783,8.15156667 55.5089348,8.01956667 C55.3765435,7.88856667 55.3106739,7.7259 55.3106739,7.53223333 L55.3106739,5.05856667 C55.3106739,4.5479 55.2063261,4.15856667 54.9979565,3.8919 C54.789913,3.62456667 54.5003478,3.49123333 54.1289348,3.49123333 C53.7503478,3.49123333 53.454913,3.6289 53.2429565,3.90323333 C53.031,4.17856667 52.9250217,4.5749 52.9250217,5.09356667 L52.9250217,7.53223333 C52.9250217,7.7259 52.8601304,7.88856667 52.7316522,8.01956667 C52.6031739,8.15156667 52.4358913,8.21723333 52.232087,8.21723333 C52.0423043,8.21723333 51.8792609,8.15323333 51.7429565,8.02556667 C51.6069783,7.8979 51.5391522,7.73356667 51.5391522,7.53223333 L51.5391522,2.92223333 C51.5391522,2.7749 51.5955652,2.63556667 51.7090435,2.5039" id="Fill-43"></path>
                        <path d="M59.773663,3.82226667 C59.5238804,4.0426 59.360837,4.3546 59.2848587,4.7566 L61.9545326,4.7566 C61.9623587,4.60993333 61.9395326,4.4606 61.8863804,4.3096 C61.8332283,4.1586 61.7523587,4.0216 61.6421413,3.8976 C61.53225,3.77393333 61.3982283,3.67493333 61.2390978,3.60126667 C61.0799674,3.52793333 60.8980109,3.49126667 60.6938804,3.49126667 C60.3302935,3.49126667 60.0234457,3.60126667 59.773663,3.82226667 M59.7795326,6.6726 C60.0557283,6.92026667 60.4020326,7.0446 60.8187717,7.0446 C60.9779022,7.0446 61.12725,7.02693333 61.2677935,6.99226667 C61.4073587,6.95726667 61.5345326,6.9126 61.6480109,6.8586 C61.7614891,6.80426667 61.8615978,6.7486 61.9489891,6.69026667 C62.0360543,6.6326 62.105837,6.58426667 62.158663,6.54493333 C62.2949674,6.48326667 62.3980109,6.45226667 62.465837,6.45226667 C62.6402935,6.45226667 62.7854022,6.51826667 62.9031196,6.64993333 C63.0205109,6.78093333 63.0792065,6.9286 63.0792065,7.09126667 C63.0792065,7.20726667 63.0492065,7.31326667 62.9885543,7.40993333 C62.9275761,7.50693333 62.85975,7.5866 62.7837717,7.6486 C62.5643152,7.8346 62.2802935,7.9946 61.9320326,8.1306 C61.5837717,8.26593333 61.1748587,8.33326667 60.7046413,8.33326667 C60.2885543,8.33326667 59.9057283,8.25826667 59.5574674,8.10726667 C59.2092065,7.95626667 58.9105109,7.74526667 58.6600761,7.47426667 C58.4102935,7.20326667 58.2152935,6.88193333 58.0754022,6.50993333 C57.9351848,6.13893333 57.8650761,5.73226667 57.8650761,5.29126667 C57.8650761,4.86493333 57.9368152,4.46293333 58.0809457,4.0836 C58.2250761,3.70393333 58.423337,3.37526667 58.6773587,3.09593333 C58.9307283,2.81726667 59.2320326,2.59726667 59.5802935,2.43426667 C59.9288804,2.27193333 60.3038804,2.1906 60.7046413,2.1906 C61.0988804,2.1906 61.4569239,2.26193333 61.7784457,2.40526667 C62.1002935,2.5486 62.3751848,2.73826667 62.6021413,2.97426667 C62.8294239,3.21026667 63.0055109,3.4836 63.1307283,3.79326667 C63.2556196,4.1026 63.3175761,4.42393333 63.3175761,4.7566 C63.3175761,5.00426667 63.2781196,5.20793333 63.1985543,5.36626667 C63.1193152,5.52493333 62.9504022,5.60493333 62.6931196,5.60493333 L59.2737717,5.60493333 C59.3344239,6.06893333 59.5026848,6.42493333 59.7795326,6.6726" id="Fill-45"></path>
                        <path d="M64.7346848,2.49266667 C64.8445761,2.36866667 65.005337,2.30666667 65.2172935,2.30666667 C65.6565326,2.30666667 65.8766413,2.51966667 65.8766413,2.945 L65.8766413,3.34033333 C66.0357717,3.015 66.2571848,2.74233333 66.5408804,2.52133333 C66.8249022,2.301 67.1676196,2.19066667 67.5690326,2.19066667 C67.8344674,2.19066667 68.0219674,2.25266667 68.1315326,2.376 C68.2414239,2.50033333 68.2962065,2.64733333 68.2962065,2.81733333 C68.2962065,3.011 68.2433804,3.17333333 68.1374022,3.30533333 C68.0307717,3.437 67.8605543,3.503 67.6260978,3.503 C67.4141413,3.503 67.2077283,3.53966667 67.0068587,3.613 C66.8063152,3.68666667 66.6282717,3.79666667 66.4730543,3.94433333 C66.3175109,4.091 66.1926196,4.27866667 66.0980543,4.507 C66.0034891,4.73566667 65.9558804,5.00433333 65.9558804,5.31466667 L65.9558804,7.53233333 C65.9558804,7.74133333 65.8880543,7.908 65.7510978,8.03133333 C65.6147935,8.15566667 65.4524022,8.21733333 65.2632717,8.21733333 C65.0666413,8.21733333 64.9016413,8.15566667 64.7685978,8.03133333 C64.6365326,7.908 64.570337,7.74133333 64.570337,7.53233333 L64.570337,2.945 C64.570337,2.76733333 64.6251196,2.61633333 64.7346848,2.49266667" id="Fill-47"></path>
                        <path d="M71.7563804,2.49266667 C71.8662717,2.36866667 72.0270326,2.30666667 72.2389891,2.30666667 C72.6782283,2.30666667 72.898337,2.51966667 72.898337,2.945 L72.898337,3.34033333 C73.0574674,3.015 73.2788804,2.74233333 73.5629022,2.52133333 C73.8465978,2.301 74.1893152,2.19066667 74.5907283,2.19066667 C74.856163,2.19066667 75.043663,2.25266667 75.1532283,2.376 C75.2631196,2.50033333 75.3179022,2.64733333 75.3179022,2.81733333 C75.3179022,3.011 75.2650761,3.17333333 75.1590978,3.30533333 C75.0527935,3.437 74.88225,3.503 74.6477935,3.503 C74.435837,3.503 74.2294239,3.53966667 74.0288804,3.613 C73.8280109,3.68666667 73.6502935,3.79666667 73.49475,3.94433333 C73.3392065,4.091 73.2143152,4.27866667 73.11975,4.507 C73.0251848,4.73566667 72.9775761,5.00433333 72.9775761,5.31466667 L72.9775761,7.53233333 C72.9775761,7.74133333 72.90975,7.908 72.7727935,8.03133333 C72.6368152,8.15566667 72.4740978,8.21733333 72.2849674,8.21733333 C72.088337,8.21733333 71.923337,8.15566667 71.7902935,8.03133333 C71.6582283,7.908 71.5920326,7.74133333 71.5920326,7.53233333 L71.5920326,2.945 C71.5920326,2.76733333 71.6468152,2.61633333 71.7563804,2.49266667" id="Fill-49"></path>
                        <path d="M79.9213043,2.5039 C80.0540217,2.37256667 80.2183696,2.3069 80.4159783,2.3069 C80.6122826,2.3069 80.7772826,2.37256667 80.9093478,2.5039 C81.0423913,2.63556667 81.108587,2.80223333 81.108587,3.00356667 L81.108587,5.7209 C81.108587,6.1079 81.0515217,6.4599 80.9380435,6.77756667 C80.8245652,7.09456667 80.6615217,7.3699 80.4498913,7.6019 C80.2379348,7.83456667 79.9803261,8.0139 79.6773913,8.14223333 C79.3744565,8.2699 79.0297826,8.33323333 78.6433696,8.33323333 C78.2647826,8.33323333 77.9220652,8.2699 77.6155435,8.14223333 C77.3083696,8.0139 77.0491304,7.83456667 76.8368478,7.6019 C76.6255435,7.3699 76.4625,7.09456667 76.3490217,6.77756667 C76.2352174,6.4599 76.1781522,6.1079 76.1781522,5.7209 L76.1781522,3.00356667 C76.1781522,2.80223333 76.2446739,2.63556667 76.3773913,2.5039 C76.5097826,2.37256667 76.6744565,2.3069 76.871087,2.3069 C77.0680435,2.3069 77.235,2.37256667 77.3713043,2.5039 C77.5076087,2.63556667 77.5754348,2.80223333 77.5754348,3.00356667 L77.5754348,5.7559 C77.5754348,6.15023333 77.6644565,6.4639 77.8421739,6.6959 C78.0208696,6.92856667 78.2876087,7.04456667 78.6433696,7.04456667 C79.0066304,7.04456667 79.2772826,6.92856667 79.4553261,6.6959 C79.6333696,6.4639 79.7230435,6.15023333 79.7230435,5.7559 L79.7230435,3.00356667 C79.7230435,2.80223333 79.7892391,2.63556667 79.9213043,2.5039" id="Fill-51"></path>
                        <path d="M82.7678804,2.5039 C82.8820109,2.37256667 83.0600543,2.3069 83.302337,2.3069 C83.5446196,2.3069 83.7184239,2.36856667 83.8244022,2.49256667 C83.9303804,2.61623333 83.9838587,2.75556667 83.9838587,2.91056667 L83.9838587,3.27023333 C84.127337,2.92223333 84.3507065,2.6549 84.6536413,2.46923333 C84.9569022,2.28356667 85.3015761,2.1909 85.687337,2.1909 C86.3466848,2.1909 86.857663,2.40123333 87.22125,2.82323333 C87.5845109,3.24523333 87.7664674,3.8239 87.7664674,4.55956667 L87.7664674,7.53223333 C87.7664674,7.7259 87.7002717,7.88856667 87.5675543,8.01956667 C87.435163,8.15156667 87.26625,8.21723333 87.0621196,8.21723333 C86.8654891,8.21723333 86.7008152,8.15156667 86.5677717,8.01956667 C86.4353804,7.88856667 86.3695109,7.7259 86.3695109,7.53223333 L86.3695109,5.05856667 C86.3695109,4.5479 86.265163,4.15856667 86.0567935,3.8919 C85.84875,3.62456667 85.5591848,3.49123333 85.1880978,3.49123333 C84.8095109,3.49123333 84.51375,3.6289 84.3017935,3.90323333 C84.089837,4.17856667 83.9838587,4.5749 83.9838587,5.09356667 L83.9838587,7.53223333 C83.9838587,7.7259 83.9189674,7.88856667 83.7904891,8.01956667 C83.6620109,8.15156667 83.4947283,8.21723333 83.2909239,8.21723333 C83.1014674,8.21723333 82.9380978,8.15323333 82.8017935,8.02556667 C82.6658152,7.8979 82.5979891,7.73356667 82.5979891,7.53223333 L82.5979891,2.92223333 C82.5979891,2.7749 82.6544022,2.63556667 82.7678804,2.5039" id="Fill-53"></path>
                        <path d="M92.459413,6.92266667 C92.6446304,6.841 92.8057174,6.725 92.9416957,6.57433333 C93.0786522,6.423 93.1862609,6.23733333 93.2658261,6.017 C93.3457174,5.796 93.3848478,5.55066667 93.3848478,5.27966667 C93.3848478,4.73733333 93.2426739,4.304 92.9589783,3.979 C92.6749565,3.65366667 92.3133261,3.49133333 91.874413,3.49133333 C91.4045217,3.49133333 91.0373478,3.65566667 90.771913,3.98433333 C90.5074565,4.31366667 90.374413,4.745 90.374413,5.27966667 C90.374413,5.55066667 90.4128913,5.79433333 90.4882174,6.011 C90.5641957,6.228 90.6701739,6.41166667 90.8064783,6.56233333 C90.9427826,6.71366667 91.101587,6.832 91.2838696,6.917 C91.4655,7.002 91.6624565,7.04466667 91.874413,7.04466667 C92.0785435,7.04466667 92.2735435,7.00366667 92.459413,6.92266667 M93.5782174,0.402333333 C93.7145217,0.270666667 93.8808261,0.205 94.0784348,0.205 C94.2747391,0.205 94.4397391,0.270666667 94.5721304,0.402333333 C94.7048478,0.533666667 94.7710435,0.700333333 94.7710435,0.901666667 L94.7710435,7.474 C94.7710435,7.73766667 94.7068043,7.927 94.5776739,8.043 C94.4488696,8.159 94.2747391,8.21733333 94.0556087,8.21733333 C93.8276739,8.21733333 93.6581087,8.14966667 93.5439783,8.014 C93.4305,7.87866667 93.3734348,7.71766667 93.3734348,7.53233333 L93.3734348,7.056 C93.1843043,7.45833333 92.9345217,7.772 92.624087,7.99633333 C92.3133261,8.22133333 91.9347391,8.33333333 91.488,8.33333333 C91.1475652,8.33333333 90.8234348,8.26566667 90.516587,8.13066667 C90.2100652,7.99466667 89.939087,7.79533333 89.7046304,7.53233333 C89.4698478,7.269 89.2846304,6.94966667 89.1483261,6.57433333 C89.0113696,6.19866667 88.9435435,5.771 88.9435435,5.291 C88.9435435,4.811 89.0136522,4.37966667 89.1535435,3.996 C89.2934348,3.613 89.4851739,3.28766667 89.7274565,3.02066667 C89.9697391,2.754 90.2498478,2.54866667 90.5677826,2.40533333 C90.8860435,2.262 91.2232174,2.19066667 91.5789783,2.19066667 C92.0635435,2.19066667 92.4463696,2.301 92.7261522,2.52133333 C93.0062609,2.742 93.2224565,3.02666667 93.3734348,3.37533333 L93.3734348,0.901666667 C93.3734348,0.700333333 93.441913,0.533666667 93.5782174,0.402333333" id="Fill-55"></path>
                        <path d="M102.411457,2.5039 C102.544174,2.37256667 102.708522,2.3069 102.90613,2.3069 C103.102435,2.3069 103.267435,2.37256667 103.3995,2.5039 C103.532543,2.63556667 103.598739,2.80223333 103.598739,3.00356667 L103.598739,5.7209 C103.598739,6.1079 103.541674,6.4599 103.428196,6.77756667 C103.314717,7.09456667 103.151674,7.3699 102.940043,7.6019 C102.728087,7.83456667 102.470478,8.0139 102.167543,8.14223333 C101.864609,8.2699 101.519935,8.33323333 101.133522,8.33323333 C100.754935,8.33323333 100.412217,8.2699 100.105696,8.14223333 C99.7985217,8.0139 99.5392826,7.83456667 99.327,7.6019 C99.1156957,7.3699 98.9526522,7.09456667 98.8391739,6.77756667 C98.7253696,6.4599 98.6683043,6.1079 98.6683043,5.7209 L98.6683043,3.00356667 C98.6683043,2.80223333 98.7348261,2.63556667 98.8675435,2.5039 C98.9999348,2.37256667 99.1646087,2.3069 99.3612391,2.3069 C99.5581957,2.3069 99.7251522,2.37256667 99.8614565,2.5039 C99.9977609,2.63556667 100.065587,2.80223333 100.065587,3.00356667 L100.065587,5.7559 C100.065587,6.15023333 100.154609,6.4639 100.332326,6.6959 C100.511022,6.92856667 100.777761,7.04456667 101.133522,7.04456667 C101.496783,7.04456667 101.767435,6.92856667 101.945478,6.6959 C102.124174,6.4639 102.213196,6.15023333 102.213196,5.7559 L102.213196,3.00356667 C102.213196,2.80223333 102.279391,2.63556667 102.411457,2.5039" id="Fill-57"></path>
                        <path d="M105.280957,2.49803333 C105.409761,2.37036667 105.587478,2.3067 105.815087,2.3067 C106.004543,2.3067 106.161065,2.36103333 106.286283,2.46936667 C106.411174,2.5777 106.473783,2.73636667 106.473783,2.94503333 L106.473783,3.27036667 C106.595087,2.9767 106.776717,2.72303333 107.019,2.5097 C107.261283,2.2967 107.586717,2.1907 107.996283,2.1907 C108.38237,2.1907 108.711717,2.28936667 108.984326,2.48703333 C109.256935,2.68403333 109.457804,2.96836667 109.586609,3.34036667 C109.715087,2.98403333 109.899,2.70303333 110.137696,2.49803333 C110.375739,2.29336667 110.69563,2.1907 111.097043,2.1907 C111.726065,2.1907 112.21063,2.3937 112.551065,2.80003333 C112.892152,3.2067 113.062696,3.77403333 113.062696,4.50136667 L113.062696,7.53236667 C113.062696,7.72603333 112.9965,7.8887 112.863783,8.0197 C112.731391,8.15136667 112.562478,8.21736667 112.358348,8.21736667 C112.153565,8.21736667 111.986935,8.15136667 111.858457,8.0197 C111.729326,7.8887 111.665087,7.72603333 111.665087,7.53236667 L111.665087,4.62903333 C111.665087,4.26536667 111.579978,3.98436667 111.409761,3.78736667 C111.238891,3.5897 111.006717,3.49136667 110.710957,3.49136667 C110.415522,3.49136667 110.184652,3.5897 110.018022,3.78736667 C109.852043,3.98436667 109.767913,4.26536667 109.767913,4.62903333 L109.767913,7.5207 C109.767913,7.7217 109.704,7.8887 109.575196,8.0197 C109.446065,8.15136667 109.279761,8.21736667 109.075304,8.21736667 C108.871174,8.21736667 108.702261,8.15136667 108.56987,8.0197 C108.437152,7.8887 108.370957,7.7217 108.370957,7.5207 L108.370957,4.62903333 C108.370957,4.26536667 108.287804,3.98436667 108.121174,3.78736667 C107.954543,3.5897 107.719761,3.49136667 107.416826,3.49136667 C107.121717,3.49136667 106.890848,3.5897 106.723565,3.78736667 C106.556935,3.98436667 106.473783,4.26536667 106.473783,4.62903333 L106.473783,7.53236667 C106.473783,7.72603333 106.409217,7.8887 106.280413,8.0197 C106.152261,8.15136667 105.984978,8.21736667 105.780848,8.21736667 C105.584217,8.21736667 105.419543,8.15303333 105.286826,8.0257 C105.154109,7.89803333 105.087913,7.7337 105.087913,7.53236667 L105.087913,3.00336667 C105.087913,2.79403333 105.151826,2.62636667 105.280957,2.49803333" id="Fill-59"></path>
                        <path d="M114.504685,3.2412 C114.610663,3.02853333 114.75838,2.84486667 114.947837,2.68986667 C115.136967,2.5352 115.36425,2.41286667 115.629033,2.3242 C115.894467,2.2352 116.182402,2.19086667 116.492511,2.19086667 C116.939576,2.19086667 117.30675,2.25253333 117.595011,2.3762 C117.881967,2.5002 118.112837,2.6512 118.28762,2.8292 C118.370772,2.9142 118.429467,3.00353333 118.464033,3.09586667 C118.497293,3.1892 118.514576,3.27453333 118.514576,3.35186667 C118.514576,3.48386667 118.466967,3.62053333 118.372402,3.76386667 C118.277837,3.90753333 118.147402,3.9792 117.980772,3.9792 C117.90512,3.9792 117.827185,3.9592 117.747946,3.92086667 C117.66838,3.8822 117.590772,3.83586667 117.514793,3.78153333 C117.416967,3.71153333 117.287837,3.63653333 117.129033,3.55486667 C116.969902,3.47386667 116.769033,3.43286667 116.52675,3.43286667 C116.321967,3.43286667 116.146207,3.46986667 115.998815,3.5432 C115.851098,3.6172 115.77675,3.74253333 115.77675,3.92086667 C115.77675,4.06753333 115.848815,4.18586667 115.992946,4.2752 C116.13675,4.36386667 116.31838,4.44886667 116.538163,4.53053333 C116.75762,4.61153333 116.992728,4.6992 117.242511,4.79153333 C117.491967,4.88453333 117.727076,4.99853333 117.946859,5.13453333 C118.166315,5.26953333 118.347946,5.4422 118.49175,5.65086667 C118.63588,5.8602 118.707946,6.11953333 118.707946,6.42886667 C118.707946,6.69986667 118.653163,6.95186667 118.543272,7.18386667 C118.433707,7.41586667 118.28012,7.61753333 118.083163,7.78786667 C117.886207,7.95786667 117.649793,8.09153333 117.372946,8.1882 C117.096424,8.28486667 116.787946,8.3332 116.447511,8.3332 C115.97762,8.3332 115.58012,8.26753333 115.254685,8.13653333 C114.928924,8.00453333 114.663815,7.8262 114.459033,7.60186667 C114.37588,7.51686667 114.319467,7.43153333 114.288815,7.34653333 C114.258489,7.26153333 114.243489,7.1762 114.243489,7.0912 C114.243489,6.94353333 114.298272,6.80086667 114.408489,6.66086667 C114.517728,6.52153333 114.648163,6.4522 114.80012,6.4522 C114.906098,6.4522 115.000663,6.4732 115.084141,6.51586667 C115.167293,6.5592 115.235772,6.5992 115.288598,6.6382 C115.439902,6.76186667 115.608815,6.86853333 115.794033,6.9572 C115.97925,7.04653333 116.189902,7.0912 116.424685,7.0912 C116.689793,7.0912 116.898163,7.04853333 117.049141,6.96286667 C117.200772,6.87786667 117.27675,6.73853333 117.27675,6.5452 C117.27675,6.3822 117.204685,6.24886667 117.060554,6.14453333 C116.91675,6.0402 116.734793,5.94686667 116.515337,5.86586667 C116.29588,5.7842 116.060772,5.6992 115.811315,5.61053333 C115.561207,5.52153333 115.32675,5.4072 115.106967,5.26786667 C114.887511,5.12853333 114.705554,4.9542 114.56175,4.7452 C114.417293,4.53653333 114.34588,4.2652 114.34588,3.93253333 C114.34588,3.68486667 114.398707,3.45453333 114.504685,3.2412" id="Fill-61"></path>
                        <path d="M127.50137,0.408333333 C127.630174,0.272333333 127.804304,0.205 128.024413,0.205 C128.235717,0.205 128.408543,0.272333333 128.540935,0.408333333 C128.673,0.543666667 128.739848,0.719666667 128.739848,0.936333333 L128.739848,7.48566667 C128.739848,7.70266667 128.673,7.87866667 128.540935,8.014 C128.408543,8.14966667 128.235717,8.21733333 128.024413,8.21733333 C127.804304,8.21733333 127.630174,8.14966667 127.50137,8.014 C127.372239,7.87866667 127.308326,7.70266667 127.308326,7.48566667 L127.308326,4.745 L123.866152,4.745 L123.866152,7.48566667 C123.866152,7.70266667 123.799957,7.87866667 123.667565,8.014 C123.534848,8.14966667 123.362674,8.21733333 123.150391,8.21733333 C122.938435,8.21733333 122.766261,8.14966667 122.63387,8.014 C122.500826,7.87866667 122.434957,7.70266667 122.434957,7.48566667 L122.434957,0.936333333 C122.434957,0.719666667 122.500826,0.543666667 122.63387,0.408333333 C122.766261,0.272333333 122.938435,0.205 123.150391,0.205 C123.362674,0.205 123.534848,0.272333333 123.667565,0.408333333 C123.799957,0.543666667 123.866152,0.719666667 123.866152,0.936333333 L123.866152,3.44466667 L127.308326,3.44466667 L127.308326,0.936333333 C127.308326,0.719666667 127.372239,0.543666667 127.50137,0.408333333" id="Fill-63"></path>
                        <path d="M133.602098,6.92266667 C133.787315,6.841 133.948402,6.725 134.08438,6.57433333 C134.221337,6.423 134.328946,6.23966667 134.408511,6.02266667 C134.488402,5.806 134.527533,5.56233333 134.527533,5.291 C134.527533,4.749 134.389598,4.31366667 134.11275,3.98433333 C133.836554,3.65566667 133.471663,3.49133333 133.017098,3.49133333 C132.547207,3.49133333 132.180033,3.65733333 131.914598,3.99033333 C131.650141,4.32366667 131.517098,4.75666667 131.517098,5.291 C131.517098,5.56233333 131.555576,5.80433333 131.630902,6.017 C131.70688,6.22966667 131.812859,6.41333333 131.949163,6.56833333 C132.085467,6.72333333 132.244272,6.841 132.426554,6.92266667 C132.608185,7.00366667 132.805141,7.04466667 133.017098,7.04466667 C133.221228,7.04466667 133.416228,7.00366667 133.602098,6.92266667 M136.19775,6.92866667 C136.311228,6.92866667 136.40025,6.977 136.464489,7.07366667 C136.529054,7.17033333 136.561011,7.30733333 136.561011,7.48566667 C136.561011,7.97366667 136.269815,8.21733333 135.686446,8.21733333 C135.307533,8.21733333 135.031663,8.11466667 134.857207,7.90966667 C134.683076,7.70433333 134.573185,7.46666667 134.527533,7.19533333 L134.51612,7.056 C134.334815,7.46666667 134.079489,7.782 133.749815,8.00233333 C133.420141,8.223 133.031772,8.33333333 132.585359,8.33333333 C132.244272,8.33333333 131.92275,8.26166667 131.619489,8.11866667 C131.316554,7.97533333 131.051446,7.772 130.824489,7.509 C130.59688,7.24566667 130.417207,6.92633333 130.285141,6.55066667 C130.152098,6.17533333 130.086228,5.756 130.086228,5.291 C130.086228,4.82666667 130.156337,4.40266667 130.296228,4.01933333 C130.43612,3.63633333 130.625576,3.30933333 130.864272,3.03833333 C131.102641,2.76733333 131.379489,2.558 131.693511,2.411 C132.007533,2.26433333 132.339163,2.19066667 132.687424,2.19066667 C133.156663,2.19066667 133.537859,2.297 133.829054,2.50966667 C134.120902,2.723 134.349489,3.011 134.51612,3.37533333 L134.51612,2.91066667 C134.51612,2.73233333 134.580685,2.58733333 134.709489,2.47533333 C134.838293,2.36266667 135.008511,2.30666667 135.220793,2.30666667 C135.433076,2.30666667 135.601337,2.36266667 135.726228,2.47533333 C135.850793,2.58733333 135.913728,2.73233333 135.913728,2.91066667 L135.913728,6.40566667 C135.913728,6.75433333 136.008293,6.92866667 136.19775,6.92866667" id="Fill-65"></path>
                        <path d="M141.204978,2.5039 C141.337696,2.37256667 141.502043,2.3069 141.699326,2.3069 C141.895957,2.3069 142.06063,2.37256667 142.193022,2.5039 C142.326065,2.63556667 142.392261,2.80223333 142.392261,3.00356667 L142.392261,5.7209 C142.392261,6.1079 142.335196,6.4599 142.221391,6.77756667 C142.108239,7.09456667 141.945196,7.3699 141.733565,7.6019 C141.521283,7.83456667 141.263674,8.0139 140.960739,8.14223333 C140.657804,8.2699 140.31313,8.33323333 139.927043,8.33323333 C139.548457,8.33323333 139.205739,8.2699 138.898891,8.14223333 C138.592043,8.0139 138.332478,7.83456667 138.120522,7.6019 C137.909217,7.3699 137.746174,7.09456667 137.63237,6.77756667 C137.518891,6.4599 137.461826,6.1079 137.461826,5.7209 L137.461826,3.00356667 C137.461826,2.80223333 137.528022,2.63556667 137.661065,2.5039 C137.79313,2.37256667 137.95813,2.3069 138.154761,2.3069 C138.351391,2.3069 138.518674,2.37256667 138.654978,2.5039 C138.791283,2.63556667 138.859109,2.80223333 138.859109,3.00356667 L138.859109,5.7559 C138.859109,6.15023333 138.947804,6.4639 139.125848,6.6959 C139.304217,6.92856667 139.570957,7.04456667 139.927043,7.04456667 C140.289978,7.04456667 140.560957,6.92856667 140.739,6.6959 C140.91737,6.4639 141.006391,6.15023333 141.006391,5.7559 L141.006391,3.00356667 C141.006391,2.80223333 141.072587,2.63556667 141.204978,2.5039" id="Fill-67"></path>
                        <path d="M143.789152,3.2412 C143.89513,3.02853333 144.042848,2.84486667 144.231978,2.68986667 C144.421435,2.5352 144.648391,2.41286667 144.9135,2.3242 C145.178935,2.2352 145.46687,2.19086667 145.776978,2.19086667 C146.224043,2.19086667 146.591217,2.25253333 146.879152,2.3762 C147.166435,2.5002 147.397304,2.6512 147.572087,2.8292 C147.654913,2.9142 147.713935,3.00353333 147.748174,3.09586667 C147.781761,3.1892 147.799043,3.27453333 147.799043,3.35186667 C147.799043,3.48386667 147.751435,3.62053333 147.65687,3.76386667 C147.562304,3.90753333 147.43187,3.9792 147.265239,3.9792 C147.189261,3.9792 147.111652,3.9592 147.032413,3.92086667 C146.952522,3.8822 146.875239,3.83586667 146.799261,3.78153333 C146.701435,3.71153333 146.572304,3.63653333 146.413174,3.55486667 C146.25437,3.47386667 146.0535,3.43286667 145.810891,3.43286667 C145.606435,3.43286667 145.430674,3.46986667 145.282957,3.5432 C145.135565,3.6172 145.061217,3.74253333 145.061217,3.92086667 C145.061217,4.06753333 145.132957,4.18586667 145.277087,4.2752 C145.421217,4.36386667 145.602848,4.44886667 145.822304,4.53053333 C146.042087,4.61153333 146.27687,4.6992 146.526978,4.79153333 C146.776435,4.88453333 147.011543,4.99853333 147.231,5.13453333 C147.450783,5.26953333 147.632413,5.4422 147.776217,5.65086667 C147.920348,5.8602 147.992413,6.11953333 147.992413,6.42886667 C147.992413,6.69986667 147.93763,6.95186667 147.827413,7.18386667 C147.717848,7.41586667 147.564587,7.61753333 147.367304,7.78786667 C147.170348,7.95786667 146.933935,8.09153333 146.657413,8.1882 C146.380565,8.28486667 146.072413,8.3332 145.731978,8.3332 C145.262087,8.3332 144.864587,8.26753333 144.539152,8.13653333 C144.213391,8.00453333 143.947957,7.8262 143.7435,7.60186667 C143.660022,7.51686667 143.603935,7.43153333 143.572957,7.34653333 C143.54263,7.26153333 143.527957,7.1762 143.527957,7.0912 C143.527957,6.94353333 143.582739,6.80086667 143.69263,6.66086667 C143.802196,6.52153333 143.93263,6.4522 144.084261,6.4522 C144.190239,6.4522 144.28513,6.4732 144.368283,6.51586667 C144.451761,6.5592 144.519913,6.5992 144.573065,6.6382 C144.72437,6.76186667 144.893283,6.86853333 145.078174,6.9572 C145.263391,7.04653333 145.474043,7.0912 145.709152,7.0912 C145.974261,7.0912 146.182304,7.04853333 146.333609,6.96286667 C146.485239,6.87786667 146.560891,6.73853333 146.560891,6.5452 C146.560891,6.3822 146.489152,6.24886667 146.345022,6.14453333 C146.200891,6.0402 146.019261,5.94686667 145.799804,5.86586667 C145.580022,5.7842 145.345239,5.6992 145.095457,5.61053333 C144.845674,5.52153333 144.610891,5.4072 144.391435,5.26786667 C144.171652,5.12853333 143.989696,4.9542 143.846217,4.7452 C143.701761,4.53653333 143.630022,4.2652 143.630022,3.93253333 C143.630022,3.68486667 143.683174,3.45453333 143.789152,3.2412" id="Fill-69"></path>
                    </g>
                </g>
            </g>
        </g>
    </g>
</svg>